<svg xmlns="http://www.w3.org/2000/svg" width="553" height="553" viewBox="0 0 553 553">
  <g id="Group_298" data-name="Group 298" transform="translate(15573 -3488)">
    <rect id="Rectangle_165" data-name="Rectangle 165" width="553" height="553" transform="translate(-15573 3488)" fill="none"/>
    <g id="_5151e0c8492e5103c096af88a51e2ea6" data-name="5151e0c8492e5103c096af88a51e2ea6" transform="translate(-15573.5 3497.453)">
      <path id="Path_123" data-name="Path 123" d="M433.976,232.417q6.029,6.68,2.871,22.932-3.294,16.923-12.686,24.154t-28.6,7.237H376.24l11.858-61h21.755Q427.952,225.736,433.976,232.417Zm-271.955-6.68H140.266l-11.859,61h19.315q19.2,0,28.6-7.237t12.687-24.155q3.152-16.249-2.871-22.932T162.021,225.736ZM553.5,267.047c0,80.33-123.8,145.45-276.5,145.45S.5,347.377.5,267.047,124.3,121.6,277,121.6,553.5,186.718,553.5,267.047ZM214.819,277.1a65.423,65.423,0,0,0,7.016-19.52q5.035-25.919-7.6-40.38t-40.188-14.461h-61.06L84.657,348.494H116.41l7.53-38.748h27.2q18,0,29.622-3.784a56.075,56.075,0,0,0,21.133-12.682A65.169,65.169,0,0,0,214.819,277.1Zm111.76,32.65,13.182-67.834q4.024-20.692-6.03-29.938t-36.543-9.239H269.124l7.533-38.753h-31.5L216.82,309.745h31.5l16.229-83.507h25.179q12.09,0,15.8,4t1.575,15.009l-12.533,64.5h32ZM462.066,217.2q-12.629-14.463-40.187-14.461H360.818l-28.33,145.758h31.755l7.529-38.748h27.2q18,0,29.621-3.784a56.075,56.075,0,0,0,21.133-12.682,63.309,63.309,0,0,0,19.94-35.7Q474.7,231.657,462.066,217.2Z" transform="translate(0 0)" fill="#5f77cc"/>
    </g>
  </g>
</svg>
