<svg xmlns="http://www.w3.org/2000/svg" width="553" height="553" viewBox="0 0 553 553">
  <g id="Group_297" data-name="Group 297" transform="translate(16184 -3488)">
    <g id="react-svgrepo-com" transform="translate(-16184 3525)" style="isolation: isolate">
      <path id="Path_55" data-name="Path 55" d="M98.6,47.8C98.6,21.4,76.526,0,49.3,0S0,21.4,0,47.8,22.074,95.6,49.3,95.6,98.6,74.2,98.6,47.8Z" transform="translate(226.737 190.989)" fill="#5f77cc" style="mix-blend-mode: luminosity;isolation: isolate"/>
      <path id="Path_56" data-name="Path 56" d="M436.143,150.047c10.41-41.017,23.5-117.08-22.635-142.867C367.592-18.5,307.842,30.7,276.291,60.234,244.832,31,183.4-17.991,137.311,7.879c-45.9,25.761-31.744,100.563-21.1,141.837C73.394,161.506,0,186.9,0,238.787c0,51.738,73.318,79.367,115.879,91.147-10.681,41.5-24.126,115.236,21.83,140.94,46.264,25.865,107.5-21.958,139.345-51.812,31.753,29.705,90.93,77.84,136.855,52.064,46.068-25.857,34.07-100.9,23.428-142.414C478.6,316.907,552.07,289.879,552.07,238.787,552.07,187.4,478.283,161.8,436.143,150.047Zm-5.23,156.665A527.241,527.241,0,0,0,402.958,238.9a526.77,526.77,0,0,0,26.869-66.823c30.892,8.684,98.66,28.531,98.66,66.708C528.488,277.323,463.456,297.358,430.913,306.712ZM402.091,451.336c-34.265,19.23-85.164-26.8-108.614-48.676a540.138,540.138,0,0,0,46.276-56.974,566.285,566.285,0,0,0,74.771-11.174C422.014,363.877,436.507,432.019,402.091,451.336Zm-252.6-.274c-34.269-19.159-18.605-84.954-10.748-115.526a570.54,570.54,0,0,0,74.4,10.443,560.221,560.221,0,0,0,47.39,56.769C240.616,421.428,183.922,470.309,149.494,451.062ZM23.582,238.787c0-38.68,67.363-58.383,98.96-67.045a538.392,538.392,0,0,0,26.908,67.6,546.344,546.344,0,0,0-27.242,68.563C92.08,299.546,23.582,277.491,23.582,238.787ZM149.127,27.669c34.409-19.311,87.8,27.719,110.639,48.887a551.53,551.53,0,0,0-47.029,56.428,592.982,592.982,0,0,0-73.668,11.1C130.5,110.8,114.756,46.959,149.127,27.669Zm207.5,130.17c17.615,2.155,34.491,5.022,50.338,8.529a478.2,478.2,0,0,1-17.67,46.092Q374.108,184.526,356.625,157.839ZM276.3,92.9a492.92,492.92,0,0,1,32.489,38.027q-32.608-1.5-65.251-.015C254.263,117.195,265.251,104.455,276.3,92.9ZM162.98,212.444a494.729,494.729,0,0,1-17.543-46.317c15.752-3.417,32.55-6.211,50.05-8.331Q177.921,184.362,162.98,212.444ZM195.99,321.41c-18.078-1.956-35.131-4.608-50.878-7.931a503.072,503.072,0,0,1,17.894-47.255Q178.135,294.558,195.99,321.41Zm80.961,64.883c-11.178-11.695-22.328-24.63-33.216-38.542,21.862.832,43.766.834,65.626-.112A489.721,489.721,0,0,1,276.952,386.293ZM389.517,265.4a476.722,476.722,0,0,1,18.54,47.086,514.73,514.73,0,0,1-51.5,8.513C368.323,302.915,379.363,284.382,389.517,265.4Zm-62.925,58.37a763.444,763.444,0,0,1-100.541.19,642.669,642.669,0,0,1-50.535-84.625,642.391,642.391,0,0,1,50.251-84.467,685.9,685.9,0,0,1,100.633.015,720.225,720.225,0,0,1,50.4,84.126A720.374,720.374,0,0,1,326.592,323.773ZM401.729,26.989c34.418,19.248,19.1,87.607,11.579,117.333a581.458,581.458,0,0,0-73.815-11.308,540.637,540.637,0,0,0-46.667-56.47C315.959,54.92,367.644,7.929,401.729,26.989Z" transform="translate(0 0)" fill="#5f77cc" fill-rule="evenodd" style="mix-blend-mode: luminosity;isolation: isolate"/>
    </g>
    <rect id="Rectangle_165" data-name="Rectangle 165" width="553" height="553" transform="translate(-16184 3488)" fill="none"/>
  </g>
</svg>
