<svg xmlns="http://www.w3.org/2000/svg" width="230.77" height="200" viewBox="0 0 230.77 200">
  <g id="react" transform="translate(-1 -3)" style="mix-blend-mode: luminosity;isolation: isolate">
    <path id="Path_123" data-name="Path 123" d="M71.17,41.423c0-15.487-12.949-28.044-28.924-28.044S13.321,25.936,13.321,41.423,26.272,69.468,42.245,69.468,71.17,56.912,71.17,41.423Z" transform="translate(74.139 61.41)" fill="#f1f6fc"/>
    <path id="Path_124" data-name="Path 124" d="M183.311,65.721c4.352-17.146,9.822-48.94-9.462-59.72-19.193-10.732-44.169,9.833-57.358,22.177C103.342,15.957,77.664-4.52,58.4,6.293,39.212,17.062,45.128,48.329,49.576,65.582,31.679,70.511,1,81.126,1,102.815c0,21.627,30.647,33.176,48.438,38.1-4.465,17.348-10.085,48.169,9.125,58.914C77.9,210.64,103.5,190.65,116.811,178.171c13.273,12.417,38.009,32.538,57.206,21.763,19.257-10.808,14.242-42.177,9.793-59.53,17.246-4.935,47.959-16.232,47.959-37.589C231.769,81.335,200.925,70.633,183.311,65.721Zm-2.186,65.487a220.389,220.389,0,0,0-11.685-28.345A220.193,220.193,0,0,0,180.671,74.93c12.913,3.63,41.241,11.926,41.241,27.885C221.912,118.923,194.728,127.3,181.125,131.208Zm-12.048,60.454c-14.323,8.038-35.6-11.2-45.4-20.347A225.784,225.784,0,0,0,143.019,147.5a236.7,236.7,0,0,0,31.255-4.671C177.4,155.1,183.463,183.587,169.077,191.662Zm-105.588-.115c-14.325-8.008-7.777-35.512-4.493-48.291a238.5,238.5,0,0,0,31.1,4.365,234.172,234.172,0,0,0,19.809,23.73C101.579,179.16,77.881,199.592,63.489,191.547ZM10.858,102.815c0-16.168,28.158-24.4,41.366-28.025a225.05,225.05,0,0,0,11.248,28.258,228.376,228.376,0,0,0-11.388,28.66C39.49,128.212,10.858,118.993,10.858,102.815ZM63.336,14.566C77.719,6.494,100.036,26.153,109.584,35A230.545,230.545,0,0,0,89.925,58.588a247.871,247.871,0,0,0-30.794,4.64C55.548,49.313,48.969,22.629,63.336,14.566Zm86.735,54.412c7.363.9,14.418,2.1,21.042,3.565a199.9,199.9,0,0,1-7.386,19.267Q157.38,80.133,150.072,68.978ZM116.495,41.832a206.04,206.04,0,0,1,13.581,15.9q-13.63-.625-27.275-.006C107.284,51.988,111.877,46.663,116.495,41.832ZM69.127,91.8a206.8,206.8,0,0,1-7.333-19.361c6.584-1.428,13.606-2.6,20.921-3.482Q75.372,80.065,69.127,91.8Zm13.8,45.548c-7.557-.818-14.685-1.926-21.267-3.315a210.286,210.286,0,0,1,7.48-19.753Q75.462,126.127,82.925,137.352Zm33.842,27.122c-4.672-4.888-9.333-10.3-13.885-16.111,9.138.348,18.295.348,27.432-.047A204.7,204.7,0,0,1,116.768,164.473Zm47.053-50.533a199.274,199.274,0,0,1,7.75,19.682,215.157,215.157,0,0,1-21.527,3.558C154.962,129.621,159.576,121.874,163.821,113.94Zm-26.3,24.4a319.127,319.127,0,0,1-42.027.079,268.641,268.641,0,0,1-21.124-35.374A268.522,268.522,0,0,1,95.372,67.737a286.712,286.712,0,0,1,42.065.006,301.058,301.058,0,0,1,21.068,35.165A301.125,301.125,0,0,1,137.518,138.339ZM168.925,14.282c14.387,8.046,7.983,36.62,4.84,49.046A243.054,243.054,0,0,0,142.91,58.6,225.992,225.992,0,0,0,123.4,35C133.073,25.957,154.678,6.315,168.925,14.282Z" transform="translate(0 0)" fill="#f1f6fc" fill-rule="evenodd"/>
  </g>
</svg>
