<svg xmlns="http://www.w3.org/2000/svg" width="552.971" height="553" viewBox="0 0 552.971 553">
  <g id="icons" style="isolation: isolate">
    <path id="wordpress-_139_" data-name="wordpress-[#139]" d="M519.1,143.784a212.5,212.5,0,0,1,1.852,28.474c0,48.661-4.506,51.414-105.479,343.117A276.467,276.467,0,0,0,519.1,143.784ZM281.351,300.821,198.378,541.635a274.619,274.619,0,0,0,169.927-4.413,18.319,18.319,0,0,1-1.963-3.612Zm181.79-38.16c0-34.286-12.276-58.055-22.811-76.3-13.99-22.94-27.151-42.019-27.151-64.974,0-25.43,19.3-48.938,46.449-48.938a15.4,15.4,0,0,1,3.567.277A276.21,276.21,0,0,0,45.482,124.689c17.612.553,41.252.845,91.489-3.306,14.9-.83,16.645,21,1.77,22.954,0,0-14.986,1.646-31.658,2.476l100.7,299.438,60.5-181.375L225.2,146.813c-14.875-.83-28.976-2.476-28.976-2.476-14.9-1.107-13.161-23.784,1.742-22.954,57.15,4.413,86.4,4.7,146.509,0,14.9-.83,16.672,21,1.77,22.954,0,0-15.013,1.646-31.657,2.476l99.922,297.224c39.455-131.884,48.634-153.731,48.634-181.375ZM0,276.483c0,109.5,63.592,204.053,155.827,248.84L23.944,163.97A274.884,274.884,0,0,0,0,276.483Z" transform="translate(0 0)" fill="#5f77cc" fill-rule="evenodd" style="mix-blend-mode: luminosity;isolation: isolate"/>
  </g>
</svg>
