<svg xmlns="http://www.w3.org/2000/svg" width="200" height="200" viewBox="0 0 200 200">
  <path id="Icon_awesome-wordpress-simple" data-name="Icon awesome-wordpress-simple" d="M100.563.563a100,100,0,1,0,100,100A100.112,100.112,0,0,0,100.563.563Zm-89.919,100A89.291,89.291,0,0,1,18.425,63.99l42.9,117.5A89.987,89.987,0,0,1,10.643,100.563Zm89.919,89.919a89.566,89.566,0,0,1-25.4-3.669l26.976-78.387,27.621,75.726a12.153,12.153,0,0,0,.645,1.25A90.018,90.018,0,0,1,100.563,190.482ZM112.942,58.425c5.4-.282,10.282-.847,10.282-.847,4.839-.565,4.274-7.7-.565-7.419,0,0-14.556,1.129-23.952,1.129-8.831,0-23.669-1.129-23.669-1.129-4.839-.282-5.4,7.137-.565,7.419,0,0,4.6.565,9.435.847L97.9,96.813,78.224,155.8,45.482,58.425c5.4-.282,10.282-.847,10.282-.847,4.839-.565,4.274-7.7-.565-7.419,0,0-14.556,1.129-23.952,1.129-1.694,0-3.669-.04-5.806-.121A89.919,89.919,0,0,1,161.288,34.232a11.391,11.391,0,0,0-1.169-.081c-8.831,0-15.081,7.7-15.081,15.968,0,7.419,4.274,13.669,8.831,21.089,3.427,5.968,7.419,13.669,7.419,24.8,0,7.7-2.944,16.613-6.855,29.073l-8.952,29.96-32.54-96.613Zm32.823,119.839,27.46-79.4c5.121-12.823,6.855-23.065,6.855-32.218a66.177,66.177,0,0,0-.6-9.234,89.924,89.924,0,0,1-33.71,120.847Z" transform="translate(-0.563 -0.563)" fill="#f1f6fc"/>
</svg>
